<svg xmlns="http://www.w3.org/2000/svg" viewBox="0 0 1104 1104"><defs><style>.cls-1{fill:#fff;}.cls-2{fill:#1877f2;}</style></defs><title>facebook_1</title><g id="Layer_2" data-name="Layer 2"><g id="Layer_1-2" data-name="Layer 1"><circle class="cls-1" cx="552" cy="552" r="552"/><path class="cls-2" d="M1013,555c0-254.6-206.4-461-461-461S91,300.4,91,555c0,230.1,168.58,420.82,389,455.4V688.26H362.92V555H480V453.44c0-115.54,68.82-179.36,174.13-179.36,50.44,0,103.19,9,103.19,9V396.53H699.16c-57.27,0-75.13,35.54-75.13,72V555H751.89L731.45,688.26H624V1010.4C844.42,975.82,1013,785.1,1013,555Z"/><path class="cls-1" d="M731.45,688.26,751.89,555H624V468.52c0-36.46,17.86-72,75.13-72h58.13V283.08s-52.76-9-103.19-9C548.79,274.08,480,337.9,480,453.44V555H362.92V688.26H480V1010.4a465.86,465.86,0,0,0,144.06,0V688.26Z"/></g></g></svg>